<svg xmlns="http://www.w3.org/2000/svg" width="24" height="24" viewBox="0 0 24 24">
  <g id="fa-css3-alt" transform="translate(-587 -3394)">
    <rect id="Retângulo_1502" data-name="Retângulo 1502" width="24" height="24" transform="translate(587 3394)" fill="none"/>
    <path id="Icon_awesome-css3-alt" data-name="Icon awesome-css3-alt" d="M0,2.25,1.246,16.386,6.857,18.25l5.611-1.864L13.714,2.25ZM11.182,5.107,11.011,6.8,6.893,8.557l-.011,0h3.982L10.407,13.8,6.9,14.821,3.371,13.779l-.229-2.639H4.889L5,12.507l1.879.475,1.954-.55.132-2.2-5.939-.018v0l-.007,0L2.893,8.561l4-1.668.232-.1H2.739L2.532,5.107Z" transform="translate(592 3395.75)" fill="#212121"/>
  </g>
</svg>
