<svg xmlns="http://www.w3.org/2000/svg" width="24" height="24" viewBox="0 0 24 24">
  <g id="fa-instagram" transform="translate(-352 -3395)">
    <rect id="Retângulo_1501" data-name="Retângulo 1501" width="24" height="24" transform="translate(352 3395)" fill="none"/>
    <path id="Icon_awesome-instagram" data-name="Icon awesome-instagram" d="M8,6.135a4.1,4.1,0,1,0,4.1,4.1A4.095,4.095,0,0,0,8,6.135ZM8,12.9a2.666,2.666,0,1,1,2.666-2.666A2.671,2.671,0,0,1,8,12.9Zm5.226-6.935a.957.957,0,1,1-.957-.957A.954.954,0,0,1,13.222,5.967Zm2.716.971a4.734,4.734,0,0,0-1.292-3.352,4.765,4.765,0,0,0-3.352-1.292c-1.321-.075-5.279-.075-6.6,0A4.758,4.758,0,0,0,1.343,3.582,4.75,4.75,0,0,0,.051,6.934c-.075,1.321-.075,5.279,0,6.6a4.734,4.734,0,0,0,1.292,3.352,4.771,4.771,0,0,0,3.352,1.292c1.321.075,5.279.075,6.6,0a4.734,4.734,0,0,0,3.352-1.292,4.765,4.765,0,0,0,1.292-3.352c.075-1.321.075-5.276,0-6.6Zm-1.706,8.013a2.7,2.7,0,0,1-1.521,1.521c-1.053.418-3.552.321-4.715.321s-3.666.093-4.715-.321a2.7,2.7,0,0,1-1.521-1.521c-.418-1.053-.321-3.552-.321-4.715s-.093-3.666.321-4.715A2.7,2.7,0,0,1,3.281,4C4.334,3.582,6.833,3.679,8,3.679s3.666-.093,4.715.321a2.7,2.7,0,0,1,1.521,1.521c.418,1.053.321,3.552.321,4.715S14.65,13.9,14.232,14.951Z" transform="translate(356.005 3396.764)" fill="#212121"/>
  </g>
</svg>
